<svg width="15" height="15" viewBox="0 0 15 15" fill="none" xmlns="http://www.w3.org/2000/svg">
<path d="M7.50001 8.03572C7.79588 8.03572 8.03572 7.79588 8.03572 7.50001C8.03572 7.20414 7.79588 6.96429 7.50001 6.96429C7.20414 6.96429 6.96429 7.20414 6.96429 7.50001C6.96429 7.79588 7.20414 8.03572 7.50001 8.03572Z" stroke="#787885" stroke-width="2" stroke-linecap="round" stroke-linejoin="round"/>
<path d="M11.25 8.03572C11.5459 8.03572 11.7857 7.79588 11.7857 7.50001C11.7857 7.20414 11.5459 6.96429 11.25 6.96429C10.9541 6.96429 10.7143 7.20414 10.7143 7.50001C10.7143 7.79588 10.9541 8.03572 11.25 8.03572Z" stroke="#787885" stroke-width="2" stroke-linecap="round" stroke-linejoin="round"/>
<path d="M3.75001 8.03572C4.04588 8.03572 4.28572 7.79588 4.28572 7.50001C4.28572 7.20414 4.04588 6.96429 3.75001 6.96429C3.45414 6.96429 3.21429 7.20414 3.21429 7.50001C3.21429 7.79588 3.45414 8.03572 3.75001 8.03572Z" stroke="#787885" stroke-width="2" stroke-linecap="round" stroke-linejoin="round"/>
</svg>
