<svg width="17" height="18" viewBox="0 0 17 18" fill="none" xmlns="http://www.w3.org/2000/svg">
<path d="M15.7417 8.75874L9.17739 15.323C8.37321 16.1272 7.28252 16.579 6.14524 16.579C5.00797 16.579 3.91728 16.1272 3.1131 15.323C2.30893 14.5188 1.85715 13.4282 1.85715 12.2909C1.85715 11.1536 2.30893 10.0629 3.1131 9.25874L9.67739 2.69445C10.2135 2.15833 10.9406 1.85715 11.6988 1.85715C12.457 1.85715 13.1841 2.15833 13.7202 2.69445C14.2564 3.23057 14.5575 3.9577 14.5575 4.71588C14.5575 5.47406 14.2564 6.20119 13.7202 6.73731L7.14882 13.3016C6.88076 13.5697 6.51719 13.7202 6.1381 13.7202C5.75901 13.7202 5.39545 13.5697 5.12739 13.3016C4.85933 13.0335 4.70874 12.67 4.70874 12.2909C4.70874 11.9118 4.85933 11.5482 5.12739 11.2802L11.1917 5.22302" stroke="#B4B4BB" stroke-width="2" stroke-linecap="round" stroke-linejoin="round"/>
</svg>
